<?xml version="1.0" encoding="utf-8"?>
<!-- Generator: Adobe Illustrator 26.1.0, SVG Export Plug-In . SVG Version: 6.00 Build 0)  -->
<svg version="1.1" id="Layer_1" xmlns="http://www.w3.org/2000/svg" xmlns:xlink="http://www.w3.org/1999/xlink" x="0px" y="0px"
	 viewBox="0 0 74.4 74.4" style="enable-background:new 0 0 74.4 74.4;" xml:space="preserve">
<g>
	<path d="M61.9,70.5H38.3c-1.7,0-3-1.3-3-3V43.7c0-1.7,1.3-3,3-3h23.6c1.7,0,3,1.3,3,3v23.8C64.9,69.2,63.5,70.5,61.9,70.5z
		 M41.3,64.5h17.6V46.7H41.3V64.5z"/>
</g>
<g>
	<path d="M44.3,38.5v-1.3c0-3.2,2.6-5.7,5.7-5.7s5.7,2.6,5.7,5.7v1.3h6v-1.3c0-6.5-5.3-11.7-11.7-11.7s-11.7,5.3-11.7,11.7v1.3H44.3
		z"/>
</g>
<path d="M58.5,4H16C7.7,4,1,10.7,1,19v19.7c0,8.3,6.7,15,15,15h2.4v6.7c0,1.2,0.7,2.3,1.9,2.8c0.4,0.2,0.8,0.2,1.1,0.2
	c0.8,0,1.5-0.3,2.1-0.9l8.9-8.9h0.9v-6h-2.2c-0.8,0-1.6,0.3-2.1,0.9l-4.6,4.6v-2.5c0-1.7-1.3-3-3-3H16c-5,0-9-4-9-9V19c0-5,4-9,9-9
	h42.5c5,0,9,4,9,9v19.7c0,1.1-0.2,2.2-0.6,3.2v9.2c4-2.7,6.6-7.3,6.6-12.4V19C73.5,10.7,66.8,4,58.5,4z"/>
</svg>
