<?xml version="1.0" encoding="utf-8"?>
<!-- Generator: Adobe Illustrator 16.0.0, SVG Export Plug-In . SVG Version: 6.00 Build 0)  -->
<!DOCTYPE svg PUBLIC "-//W3C//DTD SVG 1.1//EN" "http://www.w3.org/Graphics/SVG/1.1/DTD/svg11.dtd">
<svg version="1.1" id="Layer_1" xmlns="http://www.w3.org/2000/svg" xmlns:xlink="http://www.w3.org/1999/xlink" x="0px" y="0px"
	 width="24px" height="24px" viewBox="0 0 24 24" enable-background="new 0 0 24 24" xml:space="preserve">
<path fill="#FFFFFF" d="M19.586,12.399H4.933v-1.127h14.653V12.399z M19.586,9.018H4.933v1.127h14.653V9.018z M19.586,6.763H4.933
	v1.127h14.653V6.763z M19.586,4.509H4.933v1.127h14.653V4.509z"/>
<path fill="#FFFFFF" d="M19.586,11.399H4.933v-1.127h14.653V11.399z M19.586,8.018H4.933v1.127h14.653V8.018z M19.586,5.763H4.933
	v1.127h14.653V5.763z M19.586,3.509H4.933v1.127h14.653V3.509z"/>
<path fill="#FFFFFF" d="M19.586,10.399H4.933V9.272h14.653V10.399z M19.586,7.018H4.933v1.127h14.653V7.018z M19.586,4.763H4.933
	v1.127h14.653V4.763z M19.586,2.509H4.933v1.127h14.653V2.509z"/>
<path fill="#FFFFFF" d="M19.586,9.399H4.933V8.272h14.653V9.399z M19.586,6.018H4.933v1.127h14.653V6.018z M19.586,3.763H4.933
	v1.127h14.653V3.763z M19.586,1.509H4.933v1.127h14.653V1.509z"/>
<path fill="#FFFFFF" d="M19.586,10.399H4.933V9.272h14.653V10.399z M19.586,7.018H4.933v1.127h14.653V7.018z M19.586,4.763H4.933
	v1.127h14.653V4.763z M19.586,2.509H4.933v1.127h14.653V2.509z"/>
<path fill="#FF9933" d="M21.35,1H2.669C1.201,1,0,1.933,0,3.401v12.01c0,1.469,1.201,2.669,2.669,2.669v4.27l4.136-4.003H21.35
	c1.468,0,2.669-1.47,2.669-2.936V3.401C24.019,1.933,22.817,1,21.35,1z"/>
<path fill="#FFCC99" d="M4.003,17.011H2.669c-0.801,0-1.334-0.933-1.334-1.6V3.401c0-0.801,0.534-1.067,1.334-1.067H21.35
	c0.801,0,1.335,0.266,1.335,1.067v12.01c0,0.801-0.534,1.6-1.335,1.6H6.138l-2.135,2.003V17.011z"/>
<polygon fill="#FF9933" points="5.337,15.678 2.669,15.678 2.669,3.669 21.35,3.669 21.35,15.678 5.604,15.678 "/>
<path fill="#FFFFFF" d="M19.586,13.399H4.933v-1.127h14.653V13.399z M19.586,10.018H4.933v1.127h14.653V10.018z M19.586,7.763H4.933
	v1.127h14.653V7.763z M19.586,5.509H4.933v1.127h14.653V5.509z"/>
<path fill="#FFCC00" stroke="#333333" stroke-width="0.5" stroke-miterlimit="10" d="M18.81,14.055l0.048,1.956
	c-0.599,1.551-2.507,2.688-4.143,2.688c-1.578,0-3.341-0.903-3.971-2.37c-0.239-0.559-0.098-1.567-0.098-2.225
	c0-2.391,1.889-4.058,4.068-4.058S18.81,11.665,18.81,14.055z"/>
<path fill="#FFFFFF" stroke="#333333" stroke-width="0.5" stroke-miterlimit="10" d="M16.369,15.382
	c0,0.544-0.006,2.238-0.087,2.713c-0.246,1.419-0.91,1.41-1.579,1.41c-0.645,0-1.396,0.134-1.656-1.21
	c-0.097-0.512-0.062-2.445-0.062-3.049c0-2.186,0.794-2.696,1.686-2.696C15.56,12.55,16.369,13.194,16.369,15.382z"/>
<path fill="#FFCC00" stroke="#333333" stroke-width="0.5" stroke-miterlimit="10" d="M20.031,21.826
	c0,0.648-0.524,1.174-1.174,1.174h-8.187c-0.649,0-1.174-0.525-1.174-1.174v-4.645c0-0.646,0.524-1.171,1.174-1.171h8.187
	c0.649,0,1.174,0.524,1.174,1.171V21.826z"/>
</svg>
